<svg height="496pt" viewBox="0 0 496 496" width="496pt" xmlns="http://www.w3.org/2000/svg"><path d="m248 328-1.839844-2.945312c-23.734375-37.984376-65.367187-61.054688-110.160156-61.054688l6.289062 8.800781c21.453126 30.039063 54.671876 49.527344 91.359376 53.605469zm0 0" fill="#2b8838"/><path d="m137.878906 266.632812 4.410156 6.167969c19.101563 26.742188 47.558594 45.054688 79.464844 51.640625-19.113281-30.183594-49.5625-50.832031-83.875-57.808594zm0 0" fill="#39b54a"/><path d="m248 328 1.839844-2.945312c23.734375-37.984376 65.367187-61.054688 110.160156-61.054688l-6.289062 8.800781c-21.453126 30.039063-54.671876 49.527344-91.359376 53.605469zm0 0" fill="#2b8838"/><path d="m250.257812 324.441406c31.902344-6.585937 60.359376-24.898437 79.460938-51.640625l4.410156-6.167969c-34.320312 6.976563-64.769531 27.625-83.871094 57.808594zm0 0" fill="#39b54a"/><path d="m240 240h16v144h-16zm0 0" fill="#a67c52"/><path d="m72 384h32v48h-32zm0 0" fill="#603813"/><path d="m104 384h32v48h-32zm0 0" fill="#754c24"/><path d="m136 384h32v48h-32zm0 0" fill="#603813"/><path d="m168 384h32v48h-32zm0 0" fill="#754c24"/><path d="m200 384h32v48h-32zm0 0" fill="#603813"/><path d="m232 384h32v48h-32zm0 0" fill="#754c24"/><path d="m264 384h32v48h-32zm0 0" fill="#603813"/><path d="m296 384h32v48h-32zm0 0" fill="#754c24"/><path d="m328 384h32v48h-32zm0 0" fill="#603813"/><path d="m360 384h32v48h-32zm0 0" fill="#754c24"/><path d="m392 384h32v48h-32zm0 0" fill="#603813"/><path d="m104 432h288v64h-288zm0 0" fill="#754c24"/><path d="m104 432h264v64h-264zm0 0" fill="#8c6239"/><path d="m336 160c17.671875 0 32-14.328125 32-32s-14.328125-32-32-32c-4.832031 0-9.367188 1.152344-13.480469 3.070312-.574219-1.484374-1.199219-2.957031-1.863281-4.40625 13.441406-3.792968 23.34375-16.007812 23.34375-30.664062 0-17.671875-14.328125-32-32-32-14.65625 0-26.871094 9.902344-30.664062 23.34375-1.449219-.664062-2.910157-1.289062-4.40625-1.863281 1.917968-4.113281 3.070312-8.648438 3.070312-13.480469 0-17.671875-14.328125-32-32-32s-32 14.328125-32 32c0 4.832031 1.152344 9.367188 3.070312 13.480469-1.484374.574219-2.957031 1.199219-4.40625 1.863281-3.792968-13.441406-16.007812-23.34375-30.664062-23.34375-17.671875 0-32 14.328125-32 32 0 14.65625 9.902344 26.871094 23.34375 30.664062-.664062 1.449219-1.289062 2.910157-1.863281 4.40625-4.113281-1.917968-8.648438-3.070312-13.480469-3.070312-17.671875 0-32 14.328125-32 32s14.328125 32 32 32c4.832031 0 9.367188-1.152344 13.480469-3.070312.574219 1.484374 1.199219 2.957031 1.863281 4.40625-13.441406 3.792968-23.34375 16.007812-23.34375 30.664062 0 17.671875 14.328125 32 32 32 14.65625 0 26.871094-9.902344 30.664062-23.34375 1.449219.664062 2.910157 1.289062 4.40625 1.863281-1.917968 4.113281-3.070312 8.648438-3.070312 13.480469 0 17.671875 14.328125 32 32 32s32-14.328125 32-32c0-4.832031-1.152344-9.367188-3.070312-13.480469 1.484374-.574219 2.957031-1.199219 4.40625-1.863281 3.792968 13.441406 16.007812 23.34375 30.664062 23.34375 17.671875 0 32-14.328125 32-32 0-14.65625-9.902344-26.871094-23.34375-30.664062.664062-1.449219 1.289062-2.910157 1.863281-4.40625 4.113281 1.917968 8.648438 3.070312 13.480469 3.070312zm0 0" fill="#ffa0c0"/><path d="m288 128c0 22.089844-17.910156 40-40 40s-40-17.910156-40-40 17.910156-40 40-40 40 17.910156 40 40zm0 0" fill="#666"/><path d="m264 128c0-20.96875-12.535156-37.96875-28-37.96875s-28 17-28 37.96875 12.535156 37.96875 28 37.96875 28-17 28-37.96875zm0 0" fill="#808080"/><path d="m104 456h144v16h-144zm0 0" fill="#603813"/><path d="m264 456h16v16h-16zm0 0" fill="#603813"/><g fill="#736357"><path d="m16 0h16v16h-16zm0 0"/><path d="m16 32h16v16h-16zm0 0"/><path d="m32 16h16v16h-16zm0 0"/><path d="m0 16h16v16h-16zm0 0"/><path d="m464 0h16v16h-16zm0 0"/><path d="m464 32h16v16h-16zm0 0"/><path d="m480 16h16v16h-16zm0 0"/><path d="m448 16h16v16h-16zm0 0"/><path d="m48 224h16v16h-16zm0 0"/><path d="m48 256h16v16h-16zm0 0"/><path d="m64 240h16v16h-16zm0 0"/><path d="m32 240h16v16h-16zm0 0"/><path d="m432 224h16v16h-16zm0 0"/><path d="m432 256h16v16h-16zm0 0"/><path d="m448 240h16v16h-16zm0 0"/><path d="m416 240h16v16h-16zm0 0"/></g></svg>