<?xml version="1.0"?>
<svg xmlns="http://www.w3.org/2000/svg" height="512px" viewBox="-117 -21 682 682.66784" width="512px" class=""><g><path d="m431.25 640h-426.664062c-5.886719 0-10.667969-4.777344-10.667969-10.667969v-618.664062c0-5.882813 4.78125-10.66406275 10.667969-10.66406275h330.667968c2.820313 0 5.539063 1.12109375 7.539063 3.12499975l96 96c2 2.003906 3.125 4.714844 3.125 7.539063v522.664062c0 5.890625-4.78125 10.667969-10.667969 10.667969zm-415.996094-21.332031h405.332032v-507.578125l-89.753907-89.75h-315.578125zm0 0" data-original="#000000" class="active-path" data-old_color="#000000" fill="#48CFAD"/><path d="m431.25 117.339844h-95.996094c-5.890625 0-10.671875-4.78125-10.671875-10.671875v-96c0-4.304688 2.605469-8.195313 6.582031-9.851563 3.992188-1.65625 8.574219-.7460935 11.628907 2.3125l96 96c3.050781 3.054688 3.964843 7.636719 2.3125 11.628906-1.652344 3.976563-5.546875 6.582032-9.855469 6.582032zm-85.332031-21.335938h59.582031l-59.582031-59.582031zm0 0" data-original="#000000" class="active-path" data-old_color="#000000" fill="#48CFAD"/><path d="m431.25 640h-426.664062c-5.886719 0-10.667969-4.777344-10.667969-10.667969v-191.996093c0-5.886719 4.78125-10.667969 10.667969-10.667969h426.664062c5.886719 0 10.667969 4.78125 10.667969 10.667969v191.996093c0 5.890625-4.78125 10.667969-10.667969 10.667969zm-415.996094-21.332031h405.332032v-170.667969h-405.332032zm0 0" data-original="#000000" class="active-path" data-old_color="#000000" fill="#48CFAD"/><path d="m276.585938 597.335938h-37.332032c-5.890625 0-10.671875-4.78125-10.671875-10.667969 0-5.890625 4.78125-10.664063 10.671875-10.664063h37.332032c8.820312 0 15.996093-7.179687 15.996093-16.003906 0-8.820312-7.175781-16-15.996093-16h-10.667969c-20.585938 0-37.335938-16.746094-37.335938-37.332031 0-20.585938 16.75-37.335938 37.335938-37.335938h37.332031c5.890625 0 10.664062 4.78125 10.664062 10.671875 0 5.886719-4.773437 10.664063-10.664062 10.664063h-37.332031c-8.824219 0-16 7.179687-16 16 0 8.824219 7.175781 16 16 16h10.667969c20.585937 0 37.328124 16.746093 37.328124 37.332031s-16.742187 37.335938-37.328124 37.335938zm0 0" data-original="#000000" class="active-path" data-old_color="#000000" fill="#48CFAD"/><path d="m153.917969 394.671875c-23.53125 0-42.667969-19.136719-42.667969-42.671875v-64c0-11.761719-9.566406-21.332031-21.332031-21.332031-5.890625 0-10.664063-4.773438-10.664063-10.664063 0-5.886718 4.773438-10.667968 10.664063-10.667968 11.765625 0 21.332031-9.566407 21.332031-21.332032v-64c0-23.53125 19.136719-42.664062 42.667969-42.664062 5.886719 0 10.667969 4.773437 10.667969 10.664062 0 5.886719-4.78125 10.667969-10.667969 10.667969-11.765625 0-21.335938 9.566406-21.335938 21.332031v64c0 12.722656-5.59375 24.179688-14.472656 32 8.878906 7.828125 14.472656 19.273438 14.472656 31.996094v64c0 11.769531 9.570313 21.339844 21.335938 21.339844 5.886719 0 10.667969 4.773437 10.667969 10.660156 0 5.890625-4.78125 10.671875-10.667969 10.671875zm0 0" data-original="#000000" class="active-path" data-old_color="#000000" fill="#48CFAD"/><path d="m281.917969 394.671875c-5.886719 0-10.667969-4.78125-10.667969-10.671875 0-5.886719 4.78125-10.660156 10.667969-10.660156 11.761719 0 21.332031-9.570313 21.332031-21.339844v-64c0-12.722656 5.601562-24.179688 14.472656-31.996094-8.871094-7.820312-14.472656-19.277344-14.472656-32v-64c0-11.765625-9.570312-21.332031-21.332031-21.332031-5.886719 0-10.667969-4.78125-10.667969-10.667969 0-5.890625 4.78125-10.664062 10.667969-10.664062 23.53125 0 42.664062 19.132812 42.664062 42.664062v64c0 11.765625 9.570313 21.332032 21.335938 21.332032 5.886719 0 10.667969 4.78125 10.667969 10.667968 0 5.890625-4.78125 10.664063-10.667969 10.664063-11.765625 0-21.335938 9.570312-21.335938 21.332031v64c0 23.535156-19.132812 42.671875-42.664062 42.671875zm0 0" data-original="#000000" class="active-path" data-old_color="#000000" fill="#48CFAD"/><path d="m217.917969 234.671875c-5.886719 0-10.667969-4.78125-10.667969-10.667969v-21.332031c0-5.890625 4.78125-10.671875 10.667969-10.671875 5.890625 0 10.664062 4.78125 10.664062 10.671875v21.332031c0 5.886719-4.773437 10.667969-10.664062 10.667969zm0 0" data-original="#000000" class="active-path" data-old_color="#000000" fill="#48CFAD"/><path d="m217.917969 362.667969c-5.886719 0-10.667969-4.777344-10.667969-10.667969v-64c0-5.886719 4.78125-10.664062 10.667969-10.664062 5.890625 0 10.664062 4.777343 10.664062 10.664062v64c0 5.890625-4.773437 10.667969-10.664062 10.667969zm0 0" data-original="#000000" class="active-path" data-old_color="#000000" fill="#48CFAD"/><path d="m153.917969 597.335938c-23.53125 0-42.667969-19.136719-42.667969-42.667969 0-5.886719 4.78125-10.667969 10.667969-10.667969 5.890625 0 10.664062 4.78125 10.664062 10.667969 0 11.765625 9.570313 21.335937 21.335938 21.335937s21.335937-9.570312 21.335937-21.335937v-74.664063c0-5.890625 4.773438-10.671875 10.664063-10.671875 5.886719 0 10.667969 4.78125 10.667969 10.671875v74.664063c0 23.53125-19.136719 42.667969-42.667969 42.667969zm0 0" data-original="#000000" class="active-path" data-old_color="#000000" fill="#48CFAD"/></g> </svg>
